<svg width="1287" height="964" viewBox="0 0 1287 964" fill="none" xmlns="http://www.w3.org/2000/svg">
<g clip-path="url(#clip0_36_372)">
<line x1="27.75" y1="3.30579e-08" x2="27.75" y2="964" stroke="#39B54A" stroke-width="1.5"/>
<line x1="57.75" y1="3.30579e-08" x2="57.75" y2="964" stroke="#39B54A" stroke-width="1.5"/>
<line x1="87.7502" y1="3.30579e-08" x2="87.7502" y2="964" stroke="#39B54A" stroke-width="1.5"/>
<line x1="117.75" y1="3.27835e-08" x2="117.75" y2="964" stroke="#39B54A" stroke-width="1.5"/>
<line x1="147.75" y1="3.30579e-08" x2="147.75" y2="964" stroke="#39B54A" stroke-width="1.5"/>
<line x1="177.75" y1="3.30579e-08" x2="177.75" y2="964" stroke="#39B54A" stroke-width="1.5"/>
<line x1="207.75" y1="3.30579e-08" x2="207.75" y2="964" stroke="#39B54A" stroke-width="1.5"/>
<line x1="237.75" y1="3.30579e-08" x2="237.75" y2="964" stroke="#39B54A" stroke-width="1.5"/>
<line x1="267.75" y1="3.30579e-08" x2="267.75" y2="964" stroke="#39B54A" stroke-width="1.5"/>
<line x1="297.75" y1="3.30579e-08" x2="297.75" y2="964" stroke="#39B54A" stroke-width="1.5"/>
<line x1="327.75" y1="3.30579e-08" x2="327.75" y2="964" stroke="#39B54A" stroke-width="1.5"/>
<line x1="357.75" y1="3.30579e-08" x2="357.75" y2="964" stroke="#39B54A" stroke-width="1.5"/>
<line x1="387.75" y1="3.30579e-08" x2="387.75" y2="964" stroke="#39B54A" stroke-width="1.5"/>
<line x1="417.75" y1="3.30579e-08" x2="417.75" y2="964" stroke="#39B54A" stroke-width="1.5"/>
<line x1="447.751" y1="3.30579e-08" x2="447.751" y2="964" stroke="#39B54A" stroke-width="1.5"/>
<line x1="477.751" y1="3.30579e-08" x2="477.751" y2="964" stroke="#39B54A" stroke-width="1.5"/>
<line x1="507.751" y1="3.30579e-08" x2="507.751" y2="964" stroke="#39B54A" stroke-width="1.5"/>
<line x1="537.751" y1="3.27835e-08" x2="537.751" y2="964" stroke="#39B54A" stroke-width="1.5"/>
<line x1="567.751" y1="3.30579e-08" x2="567.751" y2="964" stroke="#39B54A" stroke-width="1.5"/>
<line x1="597.751" y1="3.30579e-08" x2="597.751" y2="964" stroke="#39B54A" stroke-width="1.5"/>
<line x1="627.751" y1="3.30579e-08" x2="627.751" y2="964" stroke="#39B54A" stroke-width="1.5"/>
<line x1="657.751" y1="3.30579e-08" x2="657.751" y2="964" stroke="#39B54A" stroke-width="1.5"/>
<line x1="687.751" y1="3.30579e-08" x2="687.751" y2="964" stroke="#39B54A" stroke-width="1.5"/>
<line x1="717.751" y1="3.30579e-08" x2="717.751" y2="964" stroke="#39B54A" stroke-width="1.5"/>
<line x1="747.751" y1="3.30579e-08" x2="747.751" y2="964" stroke="#39B54A" stroke-width="1.5"/>
<line x1="777.751" y1="3.30579e-08" x2="777.751" y2="964" stroke="#39B54A" stroke-width="1.5"/>
<line x1="807.751" y1="3.30579e-08" x2="807.751" y2="964" stroke="#39B54A" stroke-width="1.5"/>
<line x1="837.751" y1="3.30579e-08" x2="837.751" y2="964" stroke="#39B54A" stroke-width="1.5"/>
<line x1="867.751" y1="3.30579e-08" x2="867.751" y2="964" stroke="#39B54A" stroke-width="1.5"/>
<line x1="897.751" y1="3.30579e-08" x2="897.751" y2="964" stroke="#39B54A" stroke-width="1.5"/>
<line x1="927.751" y1="3.30579e-08" x2="927.751" y2="964" stroke="#39B54A" stroke-width="1.5"/>
<line x1="957.751" y1="3.27835e-08" x2="957.751" y2="964" stroke="#39B54A" stroke-width="1.5"/>
<line x1="987.752" y1="3.30579e-08" x2="987.752" y2="964" stroke="#39B54A" stroke-width="1.5"/>
<line x1="1017.75" y1="3.30579e-08" x2="1017.75" y2="964" stroke="#39B54A" stroke-width="1.5"/>
<line x1="1047.75" y1="3.30579e-08" x2="1047.75" y2="964" stroke="#39B54A" stroke-width="1.5"/>
<line x1="1077.75" y1="3.30579e-08" x2="1077.75" y2="964" stroke="#39B54A" stroke-width="1.5"/>
<line x1="1107.75" y1="3.30579e-08" x2="1107.75" y2="964" stroke="#39B54A" stroke-width="1.5"/>
<line x1="1137.75" y1="3.30579e-08" x2="1137.75" y2="964" stroke="#39B54A" stroke-width="1.5"/>
<line x1="1167.75" y1="3.30579e-08" x2="1167.75" y2="964" stroke="#39B54A" stroke-width="1.5"/>
<line x1="1197.75" y1="3.30579e-08" x2="1197.75" y2="964" stroke="#39B54A" stroke-width="1.5"/>
<line x1="1227.75" y1="3.30579e-08" x2="1227.75" y2="964" stroke="#39B54A" stroke-width="1.5"/>
<line x1="1257.75" y1="3.30579e-08" x2="1257.75" y2="964" stroke="#39B54A" stroke-width="1.5"/>
</g>
<path d="M1260 17.0001L-8.81569e-08 19.0001" stroke="#39B54A" stroke-width="1.5"/>
<path d="M1260 49.0002L-8.81569e-08 51.0002" stroke="#39B54A" stroke-width="1.5"/>
<path d="M1260 81.0003L-8.81569e-08 83.0003" stroke="#39B54A" stroke-width="1.5"/>
<path d="M1260 113L-8.81569e-08 115" stroke="#39B54A" stroke-width="1.5"/>
<path d="M1260 145L-8.81569e-08 147" stroke="#39B54A" stroke-width="1.5"/>
<path d="M1260 177.001L-8.81569e-08 179.001" stroke="#39B54A" stroke-width="1.5"/>
<path d="M1260 209.001L-8.81569e-08 211.001" stroke="#39B54A" stroke-width="1.5"/>
<path d="M1260 241.001L-8.81569e-08 243.001" stroke="#39B54A" stroke-width="1.5"/>
<path d="M1260 273.001L-8.81569e-08 275.001" stroke="#39B54A" stroke-width="1.5"/>
<path d="M1260 305.001L-8.81569e-08 307.001" stroke="#39B54A" stroke-width="1.5"/>
<path d="M1260 337.001L-8.81569e-08 339.001" stroke="#39B54A" stroke-width="1.5"/>
<path d="M1260 369.001L-8.81569e-08 371.001" stroke="#39B54A" stroke-width="1.5"/>
<path d="M1260 401.001L-8.81569e-08 403.001" stroke="#39B54A" stroke-width="1.5"/>
<path d="M1260 433.002L-8.81569e-08 435.002" stroke="#39B54A" stroke-width="1.5"/>
<path d="M1260 465.002L-8.81569e-08 467.002" stroke="#39B54A" stroke-width="1.5"/>
<path d="M1260 497.002L-8.81569e-08 499.002" stroke="#39B54A" stroke-width="1.5"/>
<path d="M1260 529.002L-8.81569e-08 531.002" stroke="#39B54A" stroke-width="1.5"/>
<path d="M1260 561.002L-8.81569e-08 563.002" stroke="#39B54A" stroke-width="1.5"/>
<path d="M1260 593.002L-8.81569e-08 595.002" stroke="#39B54A" stroke-width="1.5"/>
<path d="M1260 625.002L-8.81569e-08 627.002" stroke="#39B54A" stroke-width="1.5"/>
<path d="M1260 657.002L-8.81569e-08 659.002" stroke="#39B54A" stroke-width="1.5"/>
<path d="M1260 689.003L-8.81569e-08 691.003" stroke="#39B54A" stroke-width="1.5"/>
<path d="M1260 721.003L-8.81569e-08 723.003" stroke="#39B54A" stroke-width="1.5"/>
<path d="M1260 753.003L-8.81569e-08 755.003" stroke="#39B54A" stroke-width="1.5"/>
<path d="M1260 785.003L-8.81569e-08 787.003" stroke="#39B54A" stroke-width="1.5"/>
<path d="M1260 817.003L-8.81569e-08 819.003" stroke="#39B54A" stroke-width="1.5"/>
<path d="M1260 849.003L-8.81569e-08 851.003" stroke="#39B54A" stroke-width="1.5"/>
<path d="M1260 881.003L-8.81569e-08 883.003" stroke="#39B54A" stroke-width="1.5"/>
<path d="M1260 913.003L-8.81569e-08 915.003" stroke="#39B54A" stroke-width="1.5"/>
<path d="M1260 945.003L-8.81569e-08 947.003" stroke="#39B54A" stroke-width="1.5"/>
<defs>
<clipPath id="clip0_36_372">
<rect width="1260" height="964" fill="white" transform="translate(27)"/>
</clipPath>
</defs>
</svg>
