<svg width="537" height="1057" viewBox="0 0 537 1057" fill="none" xmlns="http://www.w3.org/2000/svg">
<line x1="116.75" y1="3.27835e-08" x2="116.75" y2="964" stroke="#39B54A" stroke-width="1.5"/>
<line x1="256.75" y1="3.30579e-08" x2="256.75" y2="964" stroke="#39B54A" stroke-width="1.5"/>
<line x1="46.7501" y1="3.30579e-08" x2="46.7501" y2="964" stroke="#39B54A" stroke-width="1.5"/>
<line x1="151.75" y1="3.30579e-08" x2="151.75" y2="964" stroke="#39B54A" stroke-width="1.5"/>
<line x1="291.75" y1="3.30579e-08" x2="291.75" y2="964" stroke="#39B54A" stroke-width="1.5"/>
<line x1="81.7501" y1="3.30579e-08" x2="81.7501" y2="964" stroke="#39B54A" stroke-width="1.5"/>
<line x1="186.75" y1="3.30579e-08" x2="186.75" y2="964" stroke="#39B54A" stroke-width="1.5"/>
<line x1="326.75" y1="3.30579e-08" x2="326.75" y2="964" stroke="#39B54A" stroke-width="1.5"/>
<line x1="221.75" y1="3.30579e-08" x2="221.75" y2="964" stroke="#39B54A" stroke-width="1.5"/>
<line x1="11.7501" y1="3.30579e-08" x2="11.7501" y2="964" stroke="#39B54A" stroke-width="1.5"/>
<line x1="361.75" y1="3.30579e-08" x2="361.75" y2="964" stroke="#39B54A" stroke-width="1.5"/>
<line x1="396.75" y1="3.30579e-08" x2="396.75" y2="964" stroke="#39B54A" stroke-width="1.5"/>
<line x1="431.75" y1="3.30579e-08" x2="431.75" y2="964" stroke="#39B54A" stroke-width="1.5"/>
<line x1="466.75" y1="3.30579e-08" x2="466.75" y2="964" stroke="#39B54A" stroke-width="1.5"/>
<line x1="501.75" y1="3.30579e-08" x2="501.75" y2="964" stroke="#39B54A" stroke-width="1.5"/>
<path d="M6 41.9431L536.07 41" stroke="#39B54A" stroke-width="1.5" stroke-miterlimit="10"/>
<path d="M6 321.943L536.07 321" stroke="#39B54A" stroke-width="1.5" stroke-miterlimit="10"/>
<path d="M6 111.943L536.07 111" stroke="#39B54A" stroke-width="1.5" stroke-miterlimit="10"/>
<path d="M6 391.943L536.07 391" stroke="#39B54A" stroke-width="1.5" stroke-miterlimit="10"/>
<path d="M6 76.9431L536.07 76" stroke="#39B54A" stroke-width="1.5" stroke-miterlimit="10"/>
<path d="M6 356.943L536.07 356" stroke="#39B54A" stroke-width="1.5" stroke-miterlimit="10"/>
<path d="M6 146.943L536.07 146" stroke="#39B54A" stroke-width="1.5" stroke-miterlimit="10"/>
<path d="M6 426.943L536.07 426" stroke="#39B54A" stroke-width="1.5" stroke-miterlimit="10"/>
<path d="M0 181.943L530.07 181" stroke="#39B54A" stroke-width="1.5" stroke-miterlimit="10"/>
<path d="M0 461.943L530.07 461" stroke="#39B54A" stroke-width="1.5" stroke-miterlimit="10"/>
<path d="M0 251.943L530.07 251" stroke="#39B54A" stroke-width="1.5" stroke-miterlimit="10"/>
<path d="M0 531.943L530.07 531" stroke="#39B54A" stroke-width="1.5" stroke-miterlimit="10"/>
<path d="M0 216.943L530.07 216" stroke="#39B54A" stroke-width="1.5" stroke-miterlimit="10"/>
<path d="M0 496.943L530.07 496" stroke="#39B54A" stroke-width="1.5" stroke-miterlimit="10"/>
<path d="M0 286.943L530.07 286" stroke="#39B54A" stroke-width="1.5" stroke-miterlimit="10"/>
<path d="M0 566.943L530.07 566" stroke="#39B54A" stroke-width="1.5" stroke-miterlimit="10"/>
<path d="M6 811.943L536.07 811" stroke="#39B54A" stroke-width="1.5" stroke-miterlimit="10"/>
<path d="M6 601.943L536.07 601" stroke="#39B54A" stroke-width="1.5" stroke-miterlimit="10"/>
<path d="M6 881.943L536.07 881" stroke="#39B54A" stroke-width="1.5" stroke-miterlimit="10"/>
<path d="M6 846.943L536.07 846" stroke="#39B54A" stroke-width="1.5" stroke-miterlimit="10"/>
<path d="M6 636.943L536.07 636" stroke="#39B54A" stroke-width="1.5" stroke-miterlimit="10"/>
<path d="M6 916.943L536.07 916" stroke="#39B54A" stroke-width="1.5" stroke-miterlimit="10"/>
<path d="M0 671.943L530.07 671" stroke="#39B54A" stroke-width="1.5" stroke-miterlimit="10"/>
<path d="M0 951.943L530.07 951" stroke="#39B54A" stroke-width="1.5" stroke-miterlimit="10"/>
<path d="M0 741.943L530.07 741" stroke="#39B54A" stroke-width="1.5" stroke-miterlimit="10"/>
<path d="M0 706.943L530.07 706" stroke="#39B54A" stroke-width="1.5" stroke-miterlimit="10"/>
<path d="M0 776.943L530.07 776" stroke="#39B54A" stroke-width="1.5" stroke-miterlimit="10"/>
</svg>
