<?xml version="1.0" encoding="UTF-8"?>
<svg id="Layer_1" data-name="Layer 1" xmlns="http://www.w3.org/2000/svg" viewBox="0 0 1920 264">
  <polygon points="1926.15 87.79 1926.15 95.5 1865.54 109.38 1851.69 127.88 1825.71 130.97 1808.4 130.97 1772.03 126.34 1751.25 126.34 1718.35 126.34 1720.08 140.22 1702.77 143.3 1685.45 149.47 1661.21 143.3 1640.43 138.68 1604.07 143.3 1569.43 138.68 1540 143.3 1519.22 135.59 1501.9 143.3 1475.93 135.59 1458.61 132.51 1432.64 120.17 1415.32 107.84 1378.96 118.63 1363.37 115.55 1337.4 118.63 1292.38 118.63 1257.74 127.88 1231.34 134.05 1181.55 123.26 1131.34 124.8 1099.3 114.78 1075.92 123.26 1041.29 103.21 992.81 89.33 965.1 78.54 934.8 85.86 902.76 95.5 882.85 87.79 848.22 91.65 816.18 92.42 788.48 109.38 760.77 97.04 731.33 109.38 714.02 108.99 694.97 109.38 672.46 95.5 627.44 93.96 618.78 101.67 584.15 97.43 570.29 110.92 549.51 103.21 518.35 104.75 495.84 103.21 450.81 101.67 438.69 112.46 397.13 112.46 365.96 120.17 334.8 123.26 279.38 132.51 243.02 140.22 222.24 140.22 185.88 155.64 90.64 134.05 38.69 149.47 4.06 127.88 -.48 22.06 -6.96 22.06 -1.25 175.23 33.51 200.16 85.65 182.35 181.23 207.29 217.73 189.48 238.59 189.48 275.09 180.57 330.7 169.89 361.99 166.32 393.27 157.42 434.98 157.42 447.15 144.95 492.34 146.73 514.93 148.51 546.21 146.73 567.07 155.64 580.97 140.05 615.73 144.95 624.42 136.05 669.61 137.83 692.2 153.86 711.32 153.41 728.7 153.86 758.25 139.61 786.06 153.86 813.86 134.27 846.02 133.37 880.78 128.92 900.76 137.83 932.92 126.7 963.33 118.24 991.14 130.7 1039.8 146.73 1074.56 169.89 1098.02 160.09 1130.18 171.67 1180.58 169.89 1230.55 182.35 1257.05 175.23 1291.81 164.54 1337 164.54 1363.07 160.98 1378.71 164.54 1415.21 152.08 1432.59 166.32 1458.66 180.57 1476.04 184.13 1502.11 193.04 1519.49 184.13 1540.34 193.04 1569.89 187.7 1604.65 193.04 1641.15 187.7 1662 193.04 1686.33 200.16 1703.71 193.04 1721.09 189.48 1719.36 173.45 1752.38 173.45 1773.23 173.45 1809.73 178.79 1827.11 178.79 1853.18 175.23 1867.08 153.86 1927.91 137.83 1927.91 128.92 1930 22.06 1927.62 22.06 1926.15 87.79" style="fill: #feb51b;"/>
  <polygon points="-2.27 157.84 32.44 179.42 84.51 164 179.97 185.58 216.42 170.17 237.25 170.17 273.7 162.46 329.24 153.21 360.48 150.13 391.72 142.42 433.38 142.42 445.52 131.63 490.65 133.17 513.21 134.71 544.46 133.17 565.28 140.88 579.17 127.39 613.88 131.63 622.56 123.92 667.69 125.47 690.25 139.34 709.34 138.95 726.7 139.34 756.2 127.01 783.97 139.34 811.74 122.38 843.85 121.61 878.56 117.76 898.52 125.47 930.63 115.83 961.01 108.51 988.78 119.3 1037.37 133.17 1072.09 153.21 1095.52 144.73 1127.63 154.75 1177.96 153.21 1227.86 164 1254.33 157.84 1289.04 148.59 1334.17 148.59 1360.2 145.5 1375.82 148.59 1412.27 137.8 1429.63 150.13 1455.66 162.46 1473.02 165.54 1499.05 173.25 1516.41 165.54 1537.24 173.25 1566.74 168.63 1601.45 173.25 1637.9 168.63 1658.73 173.25 1683.03 179.42 1700.39 173.25 1717.74 170.17 1716.01 156.29 1748.98 156.29 1769.81 156.29 1806.26 160.92 1823.61 160.92 1849.65 157.84 1863.53 139.34 1924.28 125.47 1924.28 117.76 1925.76 52.05 -6.81 52.05 -2.27 157.84" style="fill: #1d7d40;"/>
  <rect x="-9.85" width="1939.7" height="53.41" transform="translate(1920 53.41) rotate(180)" style="fill: #1d7d40;"/>
</svg>