<?xml version="1.0" encoding="UTF-8"?>
<svg id="Layer_1" data-name="Layer 1" xmlns="http://www.w3.org/2000/svg" viewBox="0 0 1920 264">
  <polygon points="1922.15 116.79 1922.15 124.5 1861.54 138.38 1847.69 156.88 1821.71 159.97 1804.4 159.97 1768.03 155.34 1747.25 155.34 1714.35 155.34 1716.08 169.22 1698.77 172.3 1681.45 178.47 1657.21 172.3 1636.43 167.68 1600.07 172.3 1565.43 167.68 1536 172.3 1515.22 164.59 1497.9 172.3 1471.93 164.59 1454.61 161.51 1428.64 149.17 1411.32 136.84 1374.96 147.63 1359.37 144.55 1333.4 147.63 1288.38 147.63 1253.74 156.88 1227.34 163.05 1177.55 152.26 1127.34 153.8 1095.3 143.78 1071.92 152.26 1037.29 132.21 988.81 118.33 961.1 107.54 930.8 114.86 898.76 124.5 878.85 116.79 844.22 120.65 812.18 121.42 784.48 138.38 756.77 126.04 727.33 138.38 710.02 137.99 690.97 138.38 668.46 124.5 623.44 122.96 614.78 130.67 580.15 126.43 566.29 139.92 545.51 132.21 514.35 133.75 491.84 132.21 446.81 130.67 434.69 141.46 393.13 141.46 361.96 149.17 330.8 152.26 275.38 161.51 239.02 169.22 218.24 169.22 181.88 184.64 86.64 163.05 34.69 178.47 .06 156.88 -4.48 51.06 -10.96 51.06 -5.25 204.23 29.51 229.16 81.65 211.35 177.23 236.29 213.73 218.48 234.59 218.48 271.09 209.57 326.7 198.89 357.99 195.32 389.27 186.42 430.98 186.42 443.15 173.95 488.34 175.73 510.93 177.51 542.21 175.73 563.07 184.64 576.97 169.05 611.73 173.95 620.42 165.05 665.61 166.83 688.2 182.86 707.32 182.41 724.7 182.86 754.25 168.61 782.06 182.86 809.86 163.27 842.02 162.37 876.78 157.92 896.76 166.83 928.92 155.7 959.33 147.24 987.14 159.7 1035.8 175.73 1070.56 198.89 1094.02 189.09 1126.18 200.67 1176.58 198.89 1226.55 211.35 1253.05 204.23 1287.81 193.54 1333 193.54 1359.07 189.98 1374.71 193.54 1411.21 181.08 1428.59 195.32 1454.66 209.57 1472.04 213.13 1498.11 222.04 1515.49 213.13 1536.34 222.04 1565.89 216.7 1600.65 222.04 1637.15 216.7 1658 222.04 1682.33 229.16 1699.71 222.04 1717.09 218.48 1715.36 202.45 1748.38 202.45 1769.23 202.45 1805.73 207.79 1823.11 207.79 1849.18 204.23 1863.08 182.86 1923.91 166.83 1923.91 157.92 1926 51.06 1923.62 51.06 1922.15 116.79" style="fill: #feb51b;"/>
  <polygon points="-2.27 157.84 32.44 179.42 84.51 164 179.97 185.58 216.42 170.17 237.25 170.17 273.7 162.46 329.24 153.21 360.48 150.13 391.72 142.42 433.38 142.42 445.52 131.63 490.65 133.17 513.21 134.71 544.46 133.17 565.28 140.88 579.17 127.39 613.88 131.63 622.56 123.92 667.69 125.47 690.25 139.34 709.34 138.95 726.7 139.34 756.2 127.01 783.97 139.34 811.74 122.38 843.85 121.61 878.56 117.76 898.52 125.47 930.63 115.83 961.01 108.51 988.78 119.3 1037.37 133.17 1072.09 153.21 1095.52 144.73 1127.63 154.75 1177.96 153.21 1227.86 164 1254.33 157.84 1289.04 148.59 1334.17 148.59 1360.2 145.5 1375.82 148.59 1412.27 137.8 1429.63 150.13 1455.66 162.46 1473.02 165.54 1499.05 173.25 1516.41 165.54 1537.24 173.25 1566.74 168.63 1601.45 173.25 1637.9 168.63 1658.73 173.25 1683.03 179.42 1700.39 173.25 1717.74 170.17 1716.01 156.29 1748.98 156.29 1769.81 156.29 1806.26 160.92 1823.61 160.92 1849.65 157.84 1863.53 139.34 1924.28 125.47 1924.28 117.76 1925.76 52.05 -6.81 52.05 -2.27 157.84" style="fill: #1d7d40;"/>
  <rect x="-9.85" width="1939.7" height="53.41" transform="translate(1920 53.41) rotate(180)" style="fill: #1d7d40;"/>
</svg>