<svg width="146" height="74" viewBox="0 0 146 74" fill="none" xmlns="http://www.w3.org/2000/svg">
<path d="M83.6467 39.038L65.239 39.038L59.825 33.624M83.6467 39.038L109.634 39.038M83.6467 39.038L77.6913 44.9935M59.825 33.624L72.8187 33.624L64.6976 25.503M59.825 33.624L38.7103 33.624M64.6976 25.503L73.3601 25.503L77.6913 21.1717M64.6976 25.503L45.2071 25.503M77.6913 21.1717L110.175 21.1717L117.755 28.7514M77.6913 21.1717L72.8187 16.2991M117.755 28.7514L87.978 28.7514M117.755 28.7514L122.628 28.7514M77.6913 44.9935L121.004 44.9935L123.169 42.8279M77.6913 44.9935L85.1356 52.4378L89.0607 56.3629L95.5576 56.3629M77.6913 44.9935L71.6005 44.9935M109.634 62.9951L68.3521 62.9951L59.825 54.468M109.634 62.9951L119.109 53.5206M109.634 62.9951L117.755 71.1162L93.2243 71.1162L45.2071 71.1162L30.6589 71.1162M5.00798 54.468L13.129 54.468L38.7103 54.468L59.825 54.468M21.2501 43.9107L49.2676 43.9107L57.7947 52.4378L59.825 54.468M72.8187 16.2991L30.1832 16.2991M72.8187 16.2991L87.978 16.2991M87.978 16.2991L81.4811 9.8023M87.978 16.2991L128.254 16.2991M81.4811 9.8023L56.9826 9.8023L15.5653 9.80229M81.4811 9.8023L104.524 9.8023L113.741 0.586016L145.204 0.586011" stroke="#F4F4F5" stroke-linejoin="bevel"/>
<circle cx="2.70701" cy="2.70701" r="2.20701" transform="matrix(1 8.74228e-08 8.74228e-08 -1 108.551 41.745)" stroke="#F4F4F5"/>
<circle cx="2.70701" cy="2.70701" r="2.20701" transform="matrix(1 8.74228e-08 8.74228e-08 -1 82.5639 31.9998)" stroke="#F4F4F5"/>
<circle cx="2.70701" cy="2.70701" r="2.20701" transform="matrix(1 8.74228e-08 8.74228e-08 -1 66.5926 47.7005)" stroke="#F4F4F5"/>
<circle cx="2.70701" cy="2.70701" r="2.20701" transform="matrix(1 8.74228e-08 8.74228e-08 -1 95.0162 59.0699)" stroke="#F4F4F5"/>
<circle cx="2.70701" cy="2.70701" r="2.20701" transform="matrix(1 8.74228e-08 8.74228e-08 -1 40.3345 28.7514)" stroke="#F4F4F5"/>
<circle cx="2.70701" cy="2.70701" r="2.20701" transform="matrix(1 8.74228e-08 8.74228e-08 -1 33.8377 36.331)" stroke="#F4F4F5"/>
<circle cx="2.70701" cy="2.70701" r="2.20701" transform="matrix(1 8.74228e-08 8.74228e-08 -1 16.242 46.8884)" stroke="#F4F4F5"/>
<circle cx="2.70701" cy="2.70701" r="2.20701" transform="matrix(1 8.74228e-08 8.74228e-08 -1 117.755 54.1974)" stroke="#F4F4F5"/>
<circle cx="2.70701" cy="2.70701" r="2.20701" transform="matrix(1 8.74228e-08 8.74228e-08 -1 25.1752 18.4648)" stroke="#F4F4F5"/>
<circle cx="2.70701" cy="2.70701" r="2.20701" transform="matrix(1 8.74228e-08 8.74228e-08 -1 10.5573 12.78)" stroke="#F4F4F5"/>
<circle cx="2.70701" cy="2.70701" r="2.20701" transform="matrix(1 8.74228e-08 8.74228e-08 -1 0 57.4457)" stroke="#F4F4F5"/>
<circle cx="2.70701" cy="2.70701" r="2.20701" transform="matrix(1 8.74228e-08 8.74228e-08 -1 25.7449 74)" stroke="#F4F4F5"/>
</svg>
