<svg width="679" height="133" viewBox="0 0 679 133" fill="none" xmlns="http://www.w3.org/2000/svg">
<g clip-path="url(#clip0_33_305)">
<path d="M109.485 94.8662H266.167L352.942 29.5256H473.377L510.956 65.3247H659.75L673.969 76.0295L674.826 75.3784L660.242 64.4036H511.559L473.964 28.6044H352.434L265.659 93.945H109.977L79.3012 70.8519H-21.5665L-69.5246 34.7351H-246.122L-267.277 18.8208L-268.149 19.472L-246.63 35.6562H-70.0324L-22.0742 71.773H78.7934L109.485 94.8662Z" fill="#F4F4F5"/>
<path d="M672.351 77.0936C673.43 77.9036 675.175 77.9036 676.255 77.0936C677.334 76.2836 677.334 74.9654 676.255 74.1554C675.175 73.3453 673.43 73.3453 672.351 74.1554C671.272 74.9654 671.272 76.2836 672.351 77.0936Z" fill="#F4F4F5"/>
<path d="M98.9954 113.941H276.656L363.432 48.5845H461.11L498.705 84.3837H630.249V83.4625H499.292L461.713 47.6633H362.924L276.149 113.02H99.5033L68.8272 89.9108H-32.0563L-80.0144 53.8099H-226.634V54.731H-80.5222L-32.5641 90.8319H68.3194L98.9954 113.941Z" fill="#F4F4F5"/>
<path d="M630.121 86.0037C631.645 86.0037 632.867 85.0667 632.867 83.939C632.867 82.8113 631.629 81.8584 630.121 81.8584C628.614 81.8584 627.36 82.7955 627.36 83.939C627.36 85.0825 628.598 86.0037 630.121 86.0037Z" fill="#F4F4F5"/>
<path d="M88.5055 133H287.146L373.922 67.6595H448.858L486.453 103.459H659.75L675.905 115.625L676.778 114.973L660.242 102.537H487.025L449.445 66.7383H373.414L286.638 132.095H89.0134L58.3373 108.986H-42.5462L-90.5044 72.8848H-273.006L-282.607 80.1113L-281.734 80.7625L-272.498 73.806H-90.9963L-43.054 109.907H57.8294L88.5055 133Z" fill="#F4F4F5"/>
<path d="M674.287 116.705C675.366 117.515 677.112 117.515 678.191 116.705C679.27 115.895 679.27 114.576 678.191 113.766C677.112 112.956 675.366 112.956 674.287 113.766C673.208 114.576 673.208 115.895 674.287 116.705Z" fill="#F4F4F5"/>
<path d="M114.722 85.3367H260.914L347.705 19.9961H479.502L517.082 55.7794H612.57V54.8741H517.685L480.09 19.075H347.197L260.406 84.4155H115.23L84.554 61.3224H-16.3295L-64.2718 25.2056H-221.651V26.1268H-64.7797L-16.8374 62.2436H84.0461L114.722 85.3367Z" fill="#F4F4F5"/>
<path d="M612.427 57.3995C613.95 57.3995 615.188 56.4624 615.188 55.3189C615.188 54.1753 613.95 53.2542 612.427 53.2542C610.903 53.2542 609.681 54.1912 609.681 55.3189C609.681 56.4465 610.903 57.3995 612.427 57.3995Z" fill="#F4F4F5"/>
<path d="M104.232 104.396H271.403L358.195 39.0552H467.251L504.83 74.8544H572.768V73.9332H505.417L467.838 38.134H357.687L270.895 103.49H104.74L74.0639 80.3815H-26.8196L-74.7619 44.2806H-297.382V45.2017H-75.2697L-27.3274 81.3026H73.5561L104.232 104.396Z" fill="#F4F4F5"/>
<path d="M572.625 76.4745C574.149 76.4745 575.387 75.5374 575.387 74.3938C575.387 73.2503 574.149 72.3132 572.625 72.3132C571.102 72.3132 569.88 73.2503 569.88 74.3938C569.88 75.5374 571.118 76.4745 572.625 76.4745Z" fill="#F4F4F5"/>
<path d="M93.7424 123.47H281.893L368.669 58.1299H454.984L492.579 93.9132H597.827V92.992H493.166L455.571 57.2087H368.177L281.385 122.549H94.2503L63.5742 99.4562H-37.3093L-85.2515 63.3394H-187.944V64.2606H-85.7594L-37.8012 100.377H63.0664L93.7424 123.47Z" fill="#F4F4F5"/>
<path d="M597.684 95.5333C599.207 95.5333 600.445 94.5962 600.445 93.4527C600.445 92.3091 599.207 91.3721 597.684 91.3721C596.16 91.3721 594.938 92.3091 594.938 93.4527C594.938 94.5962 596.176 95.5333 597.684 95.5333Z" fill="#F4F4F5"/>
<path d="M119.975 75.8072H255.677L342.452 10.4507H485.628L523.223 46.2499H657.37V45.3287H523.81L486.231 9.52954H341.944L255.169 74.886H120.483L89.7909 51.777H-11.0767L-59.0349 15.6761H-155.872V16.5973H-59.5427L-11.5846 52.6982H89.2989L119.975 75.8072Z" fill="#F4F4F5"/>
<path d="M657.243 47.87C655.718 47.87 654.481 46.9384 654.481 45.7893C654.481 44.6403 655.718 43.7087 657.243 43.7087C658.768 43.7087 660.004 44.6403 660.004 45.7893C660.004 46.9384 658.768 47.87 657.243 47.87Z" fill="#F4F4F5"/>
<path d="M128.005 68.3741L128.862 67.723L126.942 66.2776H250.424L337.215 0.921185H491.754L529.349 36.7203H566.056L588.908 19.5037L588.051 18.8525L565.548 35.7991H529.952L492.357 0H336.707L249.916 65.3565H125.72L95.0438 42.2474H-5.83969L-53.782 6.13064H-210.051V7.05183H-54.2898L-6.34748 43.1686H94.536L128.005 68.3741Z" fill="#F4F4F5"/>
<path d="M586.432 17.7884C587.511 16.9784 589.257 16.9784 590.336 17.7884C591.415 18.5984 591.415 19.9167 590.336 20.7267C589.257 21.5367 587.511 21.5367 586.432 20.7267C585.353 19.9167 585.353 18.5984 586.432 17.7884Z" fill="#F4F4F5"/>
</g>
<defs>
<clipPath id="clip0_33_305">
<rect width="979" height="133" fill="white" transform="matrix(-1 0 0 1 679 0)"/>
</clipPath>
</defs>
</svg>
