<svg xmlns="http://www.w3.org/2000/svg" width="146" height="74" fill="none"><path stroke="#1d7d40" stroke-linejoin="bevel" d="M83.647 39.038H65.239l-5.414-5.414m23.822 5.414h25.987m-25.987 0-5.956 5.956m-17.866-11.37h12.994l-8.121-8.121m-4.873 8.121H38.71m25.988-8.121h8.662l4.331-4.331m-12.993 4.331h-19.49m32.483-4.331h32.484l7.58 7.58m-40.064-7.58-4.872-4.873m44.936 12.452H87.978m29.777 0h4.873M77.691 44.993h43.313l2.165-2.165m-45.478 2.165 7.445 7.445 3.925 3.925h6.497M77.69 44.993h-6.09m38.033 18.002H68.352l-8.527-8.527m49.809 8.527 9.475-9.474m-9.475 9.474 8.121 8.121H30.659M5.008 54.468H59.825M21.25 43.911h28.018l8.527 8.527 2.03 2.03m12.994-38.169H30.183m42.636 0h15.159m0 0-6.497-6.497m6.497 6.497h40.276M81.481 9.802H15.565m65.916 0h23.043l9.217-9.216h31.463"/><circle cx="2.707" cy="2.707" r="2.207" stroke="#1d7d40" transform="matrix(1 0 0 -1 108.551 41.745)"/><circle cx="2.707" cy="2.707" r="2.207" stroke="#1d7d40" transform="matrix(1 0 0 -1 82.564 32)"/><circle cx="2.707" cy="2.707" r="2.207" stroke="#1d7d40" transform="matrix(1 0 0 -1 66.593 47.7)"/><circle cx="2.707" cy="2.707" r="2.207" stroke="#1d7d40" transform="matrix(1 0 0 -1 95.016 59.07)"/><circle cx="2.707" cy="2.707" r="2.207" stroke="#1d7d40" transform="matrix(1 0 0 -1 40.334 28.751)"/><circle cx="2.707" cy="2.707" r="2.207" stroke="#1d7d40" transform="matrix(1 0 0 -1 33.838 36.331)"/><circle cx="2.707" cy="2.707" r="2.207" stroke="#1d7d40" transform="matrix(1 0 0 -1 16.242 46.888)"/><circle cx="2.707" cy="2.707" r="2.207" stroke="#1d7d40" transform="matrix(1 0 0 -1 117.755 54.197)"/><circle cx="2.707" cy="2.707" r="2.207" stroke="#1d7d40" transform="matrix(1 0 0 -1 25.175 18.465)"/><circle cx="2.707" cy="2.707" r="2.207" stroke="#1d7d40" transform="matrix(1 0 0 -1 10.557 12.78)"/><circle cx="2.707" cy="2.707" r="2.207" stroke="#1d7d40" transform="matrix(1 0 0 -1 0 57.446)"/><circle cx="2.707" cy="2.707" r="2.207" stroke="#1d7d40" transform="matrix(1 0 0 -1 25.745 74)"/></svg>