<svg width="197" height="142" viewBox="0 0 197 142" fill="none" xmlns="http://www.w3.org/2000/svg">
<g clip-path="url(#clip0_33_384)">
<path d="M138.54 10.9425L155.771 -6.31906L155.055 -7.0354L137.547 10.5266L137.131 23.2822L115.28 45.1654V56.6731C114.588 56.7424 113.918 57.0659 113.41 57.5743C112.832 58.152 112.509 58.9377 112.509 59.7696C112.509 60.6014 112.832 61.3871 113.41 61.9648C113.987 62.5425 114.772 62.866 115.604 62.866C116.435 62.866 117.221 62.5425 117.798 61.9648C118.999 60.7632 118.999 58.7759 117.798 57.5743C117.382 57.1584 116.851 56.858 116.274 56.7424V45.5813L138.101 23.6981L138.517 10.9425H138.54ZM117.128 58.2675C117.96 59.0994 117.96 60.4166 117.128 61.2485C116.736 61.6413 116.204 61.8724 115.627 61.8724C115.049 61.8724 114.541 61.6644 114.149 61.2485C113.756 60.8556 113.525 60.3242 113.525 59.7696C113.525 59.215 113.733 58.6835 114.149 58.2675C114.541 57.8747 115.073 57.6436 115.65 57.6436C116.227 57.6436 116.736 57.8516 117.128 58.2675ZM146.162 28.7356L124.312 50.6188V62.3807L106.873 79.8503C106.411 79.5961 105.903 79.4575 105.372 79.4575C104.54 79.4575 103.755 79.781 103.177 80.3587C101.976 81.5603 101.976 83.5476 103.177 84.7492C103.755 85.3269 104.54 85.6504 105.372 85.6504C106.203 85.6504 106.988 85.3269 107.566 84.7492C108.143 84.1715 108.467 83.3858 108.467 82.554C108.467 81.7683 108.166 81.0288 107.658 80.4511L125.305 62.7736V51.0117L147.132 29.1285L147.548 16.3729L164.779 -0.888701L164.063 -1.60505L146.555 15.957L146.139 28.7125L146.162 28.7356ZM106.873 84.056C106.48 84.4488 105.949 84.6799 105.372 84.6799C104.794 84.6799 104.286 84.4719 103.893 84.056C103.062 83.2241 103.062 81.9069 103.893 81.075C104.286 80.6822 104.817 80.4511 105.395 80.4511C105.972 80.4511 106.48 80.6591 106.873 81.075C107.266 81.4679 107.497 81.9994 107.497 82.554C107.497 83.1085 107.289 83.64 106.873 84.056ZM106.226 47.0833L127.545 25.7316C127.176 25.0384 127.268 24.1603 127.846 23.5826C128.562 22.8662 129.693 22.8662 130.409 23.5826C131.125 24.2989 131.125 25.4312 130.409 26.1476C129.832 26.7253 128.954 26.8177 128.261 26.448L106.804 47.9614L96.9178 51.7511C96.9178 52.2133 96.7561 52.6985 96.3866 53.0683C95.6705 53.7846 94.5387 53.7846 93.8227 53.0683C93.1067 52.3519 93.1067 51.2196 93.8227 50.5033C94.5387 49.7869 95.6705 49.7869 96.3866 50.5033C96.4789 50.5957 96.5482 50.6882 96.6175 50.8037L106.249 47.1295L106.226 47.0833ZM46.0336 48.4467C46.8652 48.4467 47.6505 48.1232 48.2279 47.5455C48.5282 47.2451 48.7592 46.8985 48.8978 46.5287L60.0077 49.0706L84.9994 24.0216L95.1855 26.5404L159.235 -37.2837L158.542 -38L94.9083 25.4312L84.7222 22.8893L59.7075 47.9383L49.1287 45.5351C49.1287 45.5351 49.1287 45.3964 49.1287 45.3271C49.1287 44.4952 48.8054 43.7096 48.2279 43.1319C47.6505 42.5542 46.8652 42.2307 46.0336 42.2307C45.2021 42.2307 44.4168 42.5542 43.8394 43.1319C43.2619 43.7096 42.9386 44.4952 42.9386 45.3271C42.9386 46.159 43.2619 46.9447 43.8394 47.5224C44.4168 48.1001 45.2021 48.4236 46.0336 48.4236V48.4467ZM44.5323 43.8482C44.925 43.4554 45.4562 43.2243 46.0336 43.2243C46.6111 43.2243 47.1192 43.4323 47.5119 43.8482C47.9046 44.241 48.1355 44.7725 48.1355 45.3271C48.1355 45.8817 47.9277 46.4132 47.5119 46.806C47.1192 47.1989 46.588 47.4299 46.0105 47.4299C45.4331 47.4299 44.925 47.222 44.5323 46.806C44.1396 46.4132 43.9087 45.8817 43.9087 45.3271C43.9087 44.7725 44.1165 44.241 44.5323 43.8251V43.8482ZM69.2006 30.2839C68.4846 29.5675 68.4846 28.4352 69.2006 27.7189C69.778 27.1412 70.6558 27.0488 71.3487 27.4185L83.96 14.7785L95.0238 17.0199L108.236 3.7791C107.866 3.08586 107.958 2.20776 108.536 1.63006C109.252 0.913716 110.384 0.913716 111.1 1.63006C111.816 2.34641 111.816 3.47869 111.1 4.19504C110.522 4.77274 109.645 4.86517 108.952 4.49544L95.3703 18.106L84.3065 15.8645L72.0647 28.1348C72.4343 28.8281 72.3419 29.7062 71.7644 30.2839C71.0484 31.0002 69.9166 31.0002 69.2006 30.2839ZM108.12 101.526C108.651 101.918 109.298 102.126 109.968 102.126C110.8 102.126 111.585 101.803 112.162 101.225C112.74 100.647 113.063 99.8618 113.063 99.0299C113.063 98.198 112.74 97.4123 112.162 96.8346C111.585 96.2569 110.8 95.9334 109.968 95.9334C109.136 95.9334 108.351 96.2569 107.774 96.8346C107.196 97.4123 106.873 98.198 106.873 99.0299C106.873 99.6769 107.081 100.301 107.427 100.809L100.244 107.996L100.96 113.172L63.3338 150.815L64.0498 151.531L102.022 113.542L101.306 108.365L108.143 101.526H108.12ZM108.467 97.551C108.859 97.1582 109.391 96.9271 109.968 96.9271C110.545 96.9271 111.054 97.135 111.446 97.551C111.839 97.9438 112.07 98.4753 112.07 99.0299C112.07 99.5845 111.862 100.116 111.446 100.509C111.054 100.902 110.522 101.133 109.945 101.133C109.367 101.133 108.859 100.925 108.467 100.509C108.074 100.116 107.843 99.5845 107.843 99.0299C107.843 98.4753 108.051 97.9438 108.467 97.5279V97.551ZM0 150.006L0.716028 150.722L12.8192 138.614V133.622L30.743 115.691V111.115L37.834 104.021L42.1763 104.599L70.8174 75.9451C71.3256 76.2686 71.903 76.4535 72.5267 76.4535C73.3582 76.4535 74.1435 76.13 74.7209 75.5523C75.2984 74.9746 75.6218 74.1889 75.6218 73.357C75.6218 72.5251 75.2984 71.7395 74.7209 71.1618C74.1435 70.5841 73.3582 70.2605 72.5267 70.2605C71.6952 70.2605 70.9098 70.5841 70.3324 71.1618C69.755 71.7395 69.4316 72.5251 69.4316 73.357C69.4316 74.0502 69.6626 74.7204 70.1014 75.275L41.853 103.536L37.5106 102.958L29.796 110.676V115.252L11.8722 133.183V138.175L0.069293 149.983L0 150.006ZM71.0022 71.855C71.3949 71.4622 71.9261 71.2311 72.5036 71.2311C73.081 71.2311 73.5892 71.4391 73.9818 71.855C74.3745 72.2478 74.6055 72.7793 74.6055 73.3339C74.6055 73.8885 74.3976 74.42 73.9818 74.8359C73.5892 75.2288 73.0579 75.4598 72.4805 75.4598C71.903 75.4598 71.3949 75.2519 71.0022 74.8359C70.6096 74.4431 70.3786 73.9116 70.3786 73.357C70.3786 72.8024 70.5865 72.2709 71.0022 71.8781V71.855ZM73.9587 57.2739L74.7209 49.3479L79.0633 45.0036L87.5863 43.6402L93.3608 37.8633C93.8689 38.2099 94.4694 38.3947 95.0931 38.3947C95.9246 38.3947 96.7099 38.0712 97.2874 37.4935C97.8648 36.9158 98.1882 36.1302 98.1882 35.2983C98.1882 34.4664 97.8648 33.6807 97.2874 33.103C96.7099 32.5253 95.9246 32.2018 95.0931 32.2018C94.2616 32.2018 93.4763 32.5253 92.8988 33.103C92.3214 33.6807 91.998 34.4664 91.998 35.2983C91.998 35.9915 92.229 36.6385 92.6447 37.17L87.1244 42.6928L78.6014 44.0562L73.7739 48.8857L73.0117 56.8117L19.0787 110.769L19.7947 111.485L73.9818 57.2739H73.9587ZM93.6148 33.8194C94.0075 33.4265 94.5387 33.1955 95.1162 33.1955C95.6936 33.1955 96.2018 33.4034 96.5944 33.8194C96.9871 34.2122 97.2181 34.7437 97.2181 35.2983C97.2181 35.8529 97.0102 36.3844 96.5944 36.8003C96.2018 37.1931 95.6705 37.4242 95.0931 37.4242C94.6311 37.4242 94.2154 37.2856 93.8458 37.0083L93.3839 36.5461C93.1298 36.1764 92.9681 35.7604 92.9681 35.2983C92.9681 34.7437 93.176 34.2122 93.5917 33.7963L93.6148 33.8194ZM46.9807 130.572L63.149 114.397L62.433 109.22L69.4316 102.219C69.0389 101.526 69.1313 100.647 69.7319 100.07C70.4248 99.3534 71.5797 99.3534 72.2957 100.07C73.0117 100.786 73.0117 101.918 72.2957 102.635C71.7182 103.212 70.8405 103.305 70.1476 102.935L63.4955 109.59L64.2115 114.766L47.6967 131.289L46.9807 130.572ZM73.4968 121.653L55.573 139.584H50.9996L43.9087 146.678L44.4861 151.023L15.5216 180L14.8056 179.284L43.4236 150.653L42.8462 146.309L50.5608 138.591H55.1341L73.0579 120.659H78.047L89.3187 109.382C88.9722 108.712 89.0646 107.857 89.642 107.279C90.3581 106.563 91.4898 106.563 92.2059 107.279C92.9219 107.996 92.9219 109.128 92.2059 109.844C91.6053 110.445 90.7045 110.538 90.0116 110.122L78.4628 121.676H73.4737L73.4968 121.653ZM167.92 43.7327L167.343 39.3884L196.307 10.4111L197.023 11.1274L168.405 39.7581L168.983 44.1024L161.268 51.8204H156.695L138.771 69.7522H133.782L122.51 81.0288C122.856 81.699 122.764 82.554 122.187 83.1316C121.471 83.848 120.339 83.848 119.623 83.1316C118.907 82.4153 118.907 81.283 119.623 80.5667C120.223 79.9659 121.124 79.8734 121.817 80.2894L133.366 68.7354H138.355L156.279 50.8037H160.852L167.943 43.7096L167.92 43.7327ZM128.862 101.294L128.1 109.22L123.757 113.565L115.234 114.928L109.46 120.705C108.952 120.358 108.351 120.174 107.728 120.174C106.896 120.174 106.111 120.497 105.533 121.075C104.956 121.653 104.632 122.438 104.632 123.27C104.632 124.102 104.956 124.888 105.533 125.465C106.111 126.043 106.896 126.367 107.728 126.367C108.559 126.367 109.344 126.043 109.922 125.465C110.499 124.888 110.823 124.102 110.823 123.27C110.823 122.577 110.592 121.93 110.176 121.398L115.696 115.876L124.219 114.512L129.047 109.683L129.809 101.757L183.742 47.7997L183.026 47.0833L128.839 101.294H128.862ZM109.206 124.749C108.813 125.142 108.282 125.373 107.704 125.373C107.127 125.373 106.619 125.165 106.226 124.749C105.834 124.356 105.603 123.825 105.603 123.27C105.603 122.716 105.81 122.184 106.226 121.768C106.619 121.375 107.15 121.144 107.728 121.144C108.189 121.144 108.605 121.283 108.975 121.56L109.414 121.999C109.668 122.369 109.829 122.785 109.829 123.247C109.829 123.802 109.622 124.333 109.206 124.749ZM87.1706 67.0717C87.1706 72.294 91.4206 76.5459 96.6406 76.5459C101.861 76.5459 106.111 72.294 106.111 67.0717C106.111 61.8493 101.861 57.5974 96.6406 57.5974C91.4206 57.5974 87.1706 61.8493 87.1706 67.0717ZM96.6406 58.5911C101.306 58.5911 105.117 62.4039 105.117 67.0717C105.117 71.7395 101.306 75.5523 96.6406 75.5523C91.9749 75.5523 88.1638 71.7395 88.1638 67.0717C88.1638 62.4039 91.9749 58.5911 96.6406 58.5911ZM96.6406 73.9347C100.429 73.9347 103.501 70.8614 103.501 67.0717C103.501 63.282 100.429 60.2086 96.6406 60.2086C92.8526 60.2086 89.7806 63.282 89.7806 67.0717C89.7806 70.8614 92.8526 73.9347 96.6406 73.9347ZM96.6406 61.2254C99.8743 61.2254 102.507 63.8597 102.507 67.0948C102.507 70.3299 99.8743 72.9642 96.6406 72.9642C93.407 72.9642 90.7738 70.3299 90.7738 67.0948C90.7738 63.8597 93.407 61.2254 96.6406 61.2254ZM93.407 67.0948C93.407 65.3155 94.839 63.8597 96.6406 63.8597C98.4422 63.8597 99.8743 65.2923 99.8743 67.0948C99.8743 68.8972 98.4422 70.3299 96.6406 70.3299C94.839 70.3299 93.407 68.8972 93.407 67.0948ZM84.7222 80.197H88.3255V83.8018H84.7222V80.197ZM84.7222 86.2281H88.3255V89.8329H84.7222V86.2281ZM84.7222 92.2593H88.3255V95.8641H84.7222V92.2593ZM84.7222 98.2904H88.3255V101.895H84.7222V98.2904ZM94.8159 83.8249H91.2127V80.2201H94.8159V83.8249ZM91.2127 86.2281H94.8159V89.8329H91.2127V86.2281Z" fill="#1E1E1E" fill-opacity="0.7"/>
</g>
<defs>
<clipPath id="clip0_33_384">
<rect width="197" height="218" fill="white" transform="translate(0 -38)"/>
</clipPath>
</defs>
</svg>
