<svg width="440" height="28" viewBox="0 0 440 28" fill="none" xmlns="http://www.w3.org/2000/svg">
<g clip-path="url(#clip0_3_60)">
<path d="M0.93661 21.7112L8.84306 26.6L20.7027 23.1056L42.4434 28L50.7432 24.5056H55.4871L63.7909 22.7584L76.4371 20.6584L83.5529 19.9584L90.6687 18.2112H100.156L102.922 15.764L113.2 16.1168L118.341 16.464L125.453 16.1168L130.197 17.864L133.36 14.8064L141.266 15.764L143.245 14.0168L153.523 14.3696L158.66 17.5168L163.007 17.4272L166.96 17.5168L173.682 14.7168L180.008 17.5168L186.329 13.6696L193.643 13.496L201.55 12.6224L206.095 14.3696L213.409 12.1856L220.326 10.5224L226.652 12.9696L237.721 16.1168L245.623 20.6584L250.963 18.7376L258.273 21.0112L269.74 20.6584L281.101 23.1056L287.13 21.7112L295.036 19.6112H305.315L311.242 18.9112L314.802 19.6112L323.102 17.164L327.055 19.9584L332.983 22.7584L336.936 23.4584L342.868 25.2056L346.822 23.4584L351.565 25.2056L358.284 24.1528L366.19 25.2056L374.49 24.1528L379.234 25.2056L384.768 26.6L388.722 25.2056L392.675 24.5056L392.277 21.3584H399.791H404.535L412.834 22.4056H416.787L422.715 21.7112L425.878 17.5168L439.716 14.3696V12.6224L440 0H0L0.93661 21.7112Z" fill="#1D7D40"/>
</g>
<defs>
<clipPath id="clip0_3_60">
<rect width="440" height="28" fill="white"/>
</clipPath>
</defs>
</svg>
