<svg width="440" height="93" viewBox="0 0 440 93" fill="none" xmlns="http://www.w3.org/2000/svg">
<g clip-path="url(#clip0_3_682)">
<path d="M-163.353 52.1424V48.8493L-137.413 42.9034L-131.483 34.9831L-120.369 33.6643H-112.952L-97.3942 35.6463H-88.4985H-74.4194L-75.1588 29.708L-67.7495 28.3893L-60.3326 25.7441L-49.9581 28.3893L-41.07 30.3636L-25.5044 28.3893L-10.6783 30.3636L1.91444 28.3893L10.8101 31.69L18.2194 28.3893L29.3409 31.69L36.7502 33.0088L47.8641 38.2839L55.281 43.5666L70.839 38.947L77.5089 40.2658L88.6304 38.947H107.901L122.719 34.9831L134.024 32.3456L155.329 36.9651L176.825 36.3095L190.531 40.5936L200.539 36.9651L215.358 45.5485L236.115 51.4868L247.968 56.1063L260.942 52.9733L274.647 48.8493L283.169 52.1424L297.996 50.4958L311.701 50.168L323.562 42.9034L335.423 48.1861L348.016 42.9034L355.433 43.0711L363.581 42.9034L373.217 48.8493L392.487 49.5048L396.191 46.2041L411.018 48.0184L416.94 42.2478L425.836 45.5485L439.176 44.8853L448.811 45.5485L468.081 46.2041L473.265 41.5846H491.056L504.396 38.2839L517.735 36.9651L541.45 33.0088L557.015 29.708H565.903L581.469 23.1066L622.235 32.3456L644.463 25.7441L659.289 34.9831L661.225 80.2787H664L661.561 14.7213L646.681 4.04918L624.37 11.6721L583.458 1L567.84 8.62295H558.913L543.287 12.4344L519.489 17.0082L506.096 18.5328L492.71 22.3443H474.858L469.651 27.6803L450.313 26.918L440.639 26.1557L427.246 26.918L418.32 23.1066L412.374 29.7766L397.495 27.6803L393.775 31.4918L374.436 30.7295L364.763 23.8689L356.584 24.0594L349.144 23.8689L336.498 29.9672L324.599 23.8689L312.7 32.2541L298.933 32.6352L284.061 34.541L275.509 30.7295L261.742 35.4939L248.73 39.1148L236.823 33.7787L215.998 26.918L201.119 17.0082L191.08 21.2008L177.321 16.2459L155.748 17.0082L134.359 11.6721L123.016 14.7213L108.137 19.2951H88.7981L77.646 20.8197L70.9457 19.2951L55.3268 24.6311L47.887 18.5328L36.7274 12.4344L29.2952 10.9098L18.1356 7.09836L10.6958 10.9098L1.76961 7.09836L-10.8765 9.38525L-25.7484 7.09836L-41.3749 9.38525L-50.3011 7.09836L-60.7137 4.04918L-68.1535 7.09836L-75.5933 8.62295L-74.8462 15.4836H-88.9787H-97.9049L-113.524 13.1967H-120.964L-132.123 14.7213L-138.069 23.8689L-164.108 30.7295V34.541L-165 80.2787H-163.986L-163.353 52.1424Z" fill="#FEB51B"/>
<path d="M659.469 33.9831L644.605 24.7441L622.316 31.3456L581.443 22.1066L565.839 28.708H556.921L541.317 32.0088L517.542 35.9651L504.164 37.2839L490.786 40.5846H472.957L467.75 45.2041L448.435 44.5485L438.777 43.8853L425.399 44.5485L416.48 41.2478L410.534 47.0184L395.678 45.2041L391.958 48.5048L372.642 47.8493L362.976 41.9034L354.805 42.0711L347.373 41.9034L334.742 47.1861L322.85 41.9034L310.967 49.168L297.215 49.4958L282.359 51.1424L273.814 47.8493L260.062 51.9733L247.058 55.1063L235.166 50.4868L214.364 44.5485L199.5 35.9651L189.468 39.5936L175.725 35.3095L154.175 35.9651L132.809 31.3456L121.481 33.9831L106.617 37.9471H87.3011L76.1491 39.2658L69.464 37.9471L53.8603 42.5666L46.4282 37.2839L35.2838 32.0088L27.8516 30.69L16.7072 27.3893L9.27509 30.69L0.356522 27.3893L-12.2743 29.3636L-27.1386 27.3893L-42.7423 29.3636L-51.6608 27.3893L-62.0582 24.7441L-69.4904 27.3893L-76.9225 28.708L-76.1831 34.6463H-90.3003H-99.2113L-114.823 32.6644H-122.247L-133.399 33.9831L-139.345 41.9034L-165.346 47.8493V51.1424L-165.986 79.2787H661.413L659.469 33.9831Z" fill="#1D7D40"/>
<path d="M659.126 70.1312H-164.126V93H659.126V70.1312Z" fill="#1D7D40"/>
</g>
<defs>
<clipPath id="clip0_3_682">
<rect width="829" height="93" fill="white" transform="translate(-167)"/>
</clipPath>
</defs>
</svg>
